<?xml version="1.0" encoding="utf-8"?>
<!-- Generator: Adobe Illustrator 15.1.0, SVG Export Plug-In . SVG Version: 6.00 Build 0)  -->
<!DOCTYPE svg PUBLIC "-//W3C//DTD SVG 1.1//EN" "http://www.w3.org/Graphics/SVG/1.1/DTD/svg11.dtd">
<svg version="1.1" id="Layer_1" xmlns="http://www.w3.org/2000/svg" xmlns:xlink="http://www.w3.org/1999/xlink" x="0px" y="0px"
	 width="537px" height="187.5px" viewBox="0 0 537 187.5" enable-background="new 0 0 537 187.5" xml:space="preserve">
<g>
	<path fill-rule="evenodd" clip-rule="evenodd" fill="#436990" d="M239.132,41.781c0,3.057-0.975,5.733-2.925,8.036
		c-1.956,2.302-4.649,3.453-8.081,3.453c-1.118,0-2.985-0.077-5.596-0.225c0.159-3.333,0.242-7.012,0.242-11.039
		c0-3.784-0.083-7.111-0.242-9.97h1.773c0.429,0,1.085-0.016,1.966-0.049c0.887-0.033,1.465-0.05,1.746-0.05
		c3.795,0,6.599,0.931,8.405,2.798C238.229,36.604,239.132,38.95,239.132,41.781L239.132,41.781z M236.328,42.508
		c0-2.39-0.766-4.384-2.286-5.987c-1.521-1.603-3.873-2.406-7.061-2.406c-0.452,0-1.069,0.055-1.857,0.165
		c0.088,2.506,0.133,5.084,0.133,7.728c0,2.903,0.061,5.855,0.176,8.846c0.859,0.171,1.691,0.253,2.484,0.253
		c2.842,0,4.952-0.837,6.334-2.523S236.328,44.877,236.328,42.508L236.328,42.508z M260.999,50.611l-0.099,2.435h-13.005
		c0.149-3.333,0.226-7.012,0.226-11.039c0-3.784-0.077-7.111-0.226-9.97h12.201l-0.132,2.403c-2.958-0.127-6.092-0.193-9.407-0.193
		c0.065,1.668,0.099,3.921,0.099,6.759c2.859,0,5.409-0.061,7.645-0.193v2.407c-2.385-0.099-4.935-0.149-7.645-0.149
		c0,2.766,0.049,5.36,0.144,7.783C254.373,50.853,257.772,50.771,260.999,50.611L260.999,50.611z M283.396,37.248
		c0,2.451-0.932,4.285-2.793,5.502c-1.861,1.218-4.362,1.824-7.502,1.824c-0.397,0-0.743-0.011-1.035-0.033
		c0,2.346,0.088,5.177,0.258,8.505h-3.095c0.16-3.057,0.242-6.737,0.242-11.039c0-3.702-0.082-7.022-0.242-9.97h2.308
		c0.248,0,0.953-0.016,2.12-0.049c1.168-0.033,2.159-0.05,2.98-0.05c2.065,0,3.707,0.469,4.93,1.411
		C282.783,34.291,283.396,35.59,283.396,37.248L283.396,37.248z M280.703,38.184c0-2.764-1.891-4.147-5.67-4.147
		c-0.919,0-1.961,0.078-3.111,0.242c0.077,1.752,0.115,4.484,0.115,8.197c0.375,0.021,0.838,0.032,1.389,0.032
		C278.272,42.508,280.703,41.065,280.703,38.184L280.703,38.184z M308.115,53.045h-3.403c0-0.722-0.678-2.986-2.033-6.792h-9.314
		c-1.332,3.751-1.999,6.015-1.999,6.792h-3.26c0-0.397,1.388-3.839,4.163-10.322c2.775-6.478,4.164-10.041,4.164-10.687h3.745
		c0,0.634,1.324,4.143,3.967,10.538C306.794,48.964,308.115,52.456,308.115,53.045L308.115,53.045z M301.935,44.138
		c-2.527-6.317-3.789-9.672-3.789-10.069h-0.181c0,0.331-1.307,3.69-3.923,10.069H301.935L301.935,44.138z M331.366,53.045h-3.112
		c-1.029-3.09-1.785-5.133-2.258-6.131c-0.602-1.262-1.29-2.071-2.049-2.44c-0.606-0.287-1.687-0.436-3.245-0.436
		c-0.914,0-1.729,0.011-2.435,0.034c0,3.476,0.061,6.466,0.193,8.973h-3.004c0.161-3.333,0.243-7.012,0.243-11.039
		c0-3.784-0.082-7.111-0.243-9.97h2.275c0.485,0,1.098-0.016,1.841-0.049s1.591-0.05,2.551-0.05c4.708,0,7.066,1.625,7.066,4.875
		c0,2.699-1.322,4.599-3.972,5.695v0.16c1.184,0.359,2.143,1.179,2.875,2.468C328.706,46.215,329.797,48.848,331.366,53.045
		L331.366,53.045z M326.431,37.909c0-2.562-1.73-3.84-5.193-3.84c-1.239,0-2.275,0.067-3.118,0.209
		c0.077,1.873,0.114,4.418,0.114,7.635c0.646,0.017,1.263,0.027,1.858,0.027C324.315,41.94,326.431,40.597,326.431,37.909
		L326.431,37.909z M353.041,32.037l-0.077,2.276c-2.132-0.111-4.336-0.166-6.604-0.166c-0.023,2.066-0.035,4.687-0.035,7.86
		c0,3.508,0.057,7.188,0.165,11.039h-2.951c0.127-3.668,0.193-7.348,0.193-11.039c0-3.128-0.033-5.75-0.099-7.86
		c-1.595,0-3.828,0.066-6.716,0.193l0.084-2.303H353.041L353.041,32.037z M383.06,53.045h-3.035c0-2.402-0.166-5.866-0.501-10.411
		c-0.331-4.538-0.512-7.259-0.534-8.163h-0.16c-1.073,3.498-2.44,7.293-4.086,11.385c-1.654,4.093-2.479,6.488-2.479,7.188h-2.181
		c0-0.755-0.768-3.195-2.308-7.32c-1.537-4.126-2.513-6.885-2.919-8.284c-0.409-1.399-0.689-2.391-0.839-2.969h-0.165
		c-0.027,1.477-0.241,4.451-0.634,8.923c-0.395,4.479-0.588,7.694-0.588,9.65h-2.776c0-0.11,0.362-3.069,1.095-8.885
		c0.732-5.811,1.097-9.853,1.097-12.124h4.248c0,1.18,0.858,4.138,2.582,8.874c1.72,4.731,2.577,7.601,2.577,8.599h0.166
		c0-0.998,0.964-3.873,2.903-8.626c1.938-4.748,2.902-7.695,2.902-8.847h4.148c0,2.271,0.247,6.291,0.744,12.069
		C382.812,49.883,383.06,52.863,383.06,53.045L383.06,53.045z M406.007,50.611l-0.101,2.435h-13.002
		c0.148-3.333,0.225-7.012,0.225-11.039c0-3.784-0.076-7.111-0.225-9.97h12.198l-0.13,2.403c-2.96-0.127-6.094-0.193-9.41-0.193
		c0.067,1.668,0.1,3.921,0.1,6.759c2.859,0,5.409-0.061,7.646-0.193v2.407c-2.385-0.099-4.936-0.149-7.646-0.149
		c0,2.766,0.05,5.36,0.143,7.783C399.38,50.853,402.779,50.771,406.007,50.611L406.007,50.611z M430.436,53.045h-2.259
		c0-0.182-1.763-2.76-5.293-7.728c-3.69-5.222-5.795-8.51-6.307-9.876h-0.166c0.193,2.589,0.293,4.814,0.293,6.665
		c0,3.614,0.083,7.26,0.242,10.939h-2.71c0.181-3.498,0.275-7.177,0.275-11.039c0-3.795-0.095-7.122-0.275-9.97h3.096
		c0,0.298,1.624,2.755,4.874,7.354c3.398,4.842,5.338,7.998,5.812,9.458h0.159c-0.182-2.622-0.275-4.853-0.275-6.681
		c0-3.977-0.071-7.359-0.226-10.13h2.76c-0.182,2.849-0.274,6.175-0.274,9.97C430.161,45.868,430.254,49.548,430.436,53.045
		L430.436,53.045z M454.077,32.037l-0.078,2.276c-2.132-0.111-4.333-0.166-6.604-0.166c-0.022,2.066-0.034,4.687-0.034,7.86
		c0,3.508,0.056,7.188,0.165,11.039h-2.952c0.128-3.668,0.193-7.348,0.193-11.039c0-3.128-0.033-5.75-0.099-7.86
		c-1.592,0-3.828,0.066-6.714,0.193l0.082-2.303H454.077L454.077,32.037z M491.88,42.217c0,3.475-1.019,6.251-3.052,8.333
		s-4.384,3.123-7.051,3.123c-2.561,0-4.802-0.953-6.735-2.864c-1.935-1.905-2.898-4.489-2.898-7.739c0-3.514,1.02-6.307,3.052-8.367
		c2.032-2.06,4.385-3.09,7.051-3.09c2.562,0,4.809,0.958,6.737,2.865C490.915,36.389,491.88,38.966,491.88,42.217L491.88,42.217z
		 M489.009,42.591c0-2.776-0.73-4.924-2.185-6.45c-1.459-1.52-3.141-2.28-5.047-2.28c-1.761,0-3.332,0.799-4.709,2.401
		s-2.065,3.746-2.065,6.422c0,2.788,0.732,4.941,2.203,6.462c1.467,1.525,3.146,2.286,5.04,2.286c1.763,0,3.332-0.81,4.703-2.435
		C488.321,47.371,489.009,45.234,489.009,42.591L489.009,42.591z M513.07,32.037l-0.134,2.403c-2.859-0.127-6.102-0.193-9.726-0.193
		c0.126,1.785,0.193,4.247,0.193,7.392c2.526,0,4.983-0.044,7.374-0.132v2.341c-2.301-0.088-4.765-0.127-7.374-0.127
		c0,4.203,0.06,7.315,0.175,9.326h-2.935c0.147-3.333,0.225-7.012,0.225-11.039c0-3.784-0.077-7.111-0.225-9.97H513.07
		L513.07,32.037z"/>
	<path fill-rule="evenodd" clip-rule="evenodd" fill="#436990" d="M236.276,144.383c0,3.686-2.568,5.533-7.7,5.533
		c-1.879,0-3.543-0.214-4.998-0.644l0.526-2.349c1.674,0.579,3.262,0.869,4.768,0.869c3.39,0,5.085-0.961,5.085-2.875
		c0-0.965-0.438-1.792-1.317-2.482c-0.587-0.459-1.741-1.071-3.467-1.842c-1.817-0.806-3.089-1.548-3.814-2.227
		c-1.01-0.939-1.511-2.113-1.511-3.528c0-1.479,0.51-2.68,1.542-3.609c1.143-1.036,2.767-1.551,4.859-1.551
		c2.375,0,3.998,0.152,4.876,0.463l-0.363,2.375c-1.511-0.475-3.125-0.715-4.83-0.715c-2.563,0-3.844,0.858-3.844,2.573
		c0,0.826,0.373,1.521,1.108,2.078c0.48,0.347,1.536,0.878,3.17,1.583c1.864,0.812,3.211,1.577,4.038,2.308
		C235.653,141.441,236.276,142.784,236.276,144.383L236.276,144.383z M249.065,147.358l-0.179,1.947
		c-0.787,0.283-1.532,0.433-2.226,0.433c-1.797,0-3.023-0.46-3.681-1.374c-0.659-0.907-0.991-2.542-0.991-4.896
		c0-1.526,0.01-3.517,0.03-5.969c-0.556,0-1.378,0.031-2.465,0.093l0.086-2.17c0.95,0.062,1.798,0.087,2.548,0.087
		c0-0.598,0.046-2.019,0.148-4.265l2.348-0.233c-0.168,2.093-0.255,3.594-0.255,4.498c0.975,0,2.416-0.046,4.31-0.148l-0.108,2.231
		c-1.792-0.062-3.237-0.093-4.319-0.093c-0.021,1.506-0.03,3.201-0.03,5.086c0,2.053,0.214,3.415,0.648,4.074
		c0.434,0.664,1.241,0.996,2.415,0.996C247.732,147.655,248.309,147.557,249.065,147.358L249.065,147.358z M264.233,149.422
		l-2.348,0.092c-0.118-0.491-0.179-0.955-0.179-1.395h-0.149c-1.23,1.119-2.899,1.675-5.013,1.675c-1.148,0-2.134-0.337-2.961-1.011
		c-0.827-0.668-1.24-1.628-1.24-2.875c0-1.536,0.648-2.772,1.945-3.706c1.297-0.93,3.701-1.42,7.225-1.47
		c0.03-0.24,0.045-0.518,0.045-0.823c0-1.23-0.327-2.047-0.98-2.456c-0.653-0.407-1.644-0.611-2.971-0.611
		c-1.567,0-3.104,0.192-4.621,0.581l0.255-2.063c1.496-0.428,3.211-0.644,5.157-0.644c1.777,0,3.15,0.368,4.115,1.099
		c0.965,0.734,1.45,1.986,1.45,3.747c0,0.469-0.021,1.322-0.067,2.553c-0.046,1.229-0.065,2.052-0.065,2.461
		C263.83,146.389,263.962,148.008,264.233,149.422L264.233,149.422z M261.583,146.521c-0.046-1.516-0.071-2.88-0.071-4.086
		c-1.874,0-3.304,0.139-4.279,0.421c-1.634,0.499-2.456,1.449-2.456,2.853c0,1.359,0.96,2.038,2.875,2.038
		C259.296,147.747,260.608,147.339,261.583,146.521L261.583,146.521z M277.363,147.358l-0.177,1.947
		c-0.788,0.283-1.532,0.433-2.228,0.433c-1.797,0-3.022-0.46-3.682-1.374c-0.658-0.907-0.99-2.542-0.99-4.896
		c0-1.526,0.011-3.517,0.031-5.969c-0.557,0-1.378,0.031-2.466,0.093l0.086-2.17c0.95,0.062,1.797,0.087,2.548,0.087
		c0-0.598,0.046-2.019,0.147-4.265l2.349-0.233c-0.169,2.093-0.256,3.594-0.256,4.498c0.976,0,2.415-0.046,4.31-0.148l-0.108,2.231
		c-1.791-0.062-3.236-0.093-4.318-0.093c-0.021,1.506-0.03,3.201-0.03,5.086c0,2.053,0.215,3.415,0.648,4.074
		c0.434,0.664,1.24,0.996,2.415,0.996C276.031,147.655,276.607,147.557,277.363,147.358L277.363,147.358z M293.563,140.64
		c0,0.418-0.021,1.002-0.061,1.736l-10.273,0.179c0.098,1.454,0.665,2.673,1.69,3.66c1.025,0.98,2.384,1.472,4.085,1.472
		c1.51,0,2.936-0.184,4.257-0.553l-0.249,2.109c-0.98,0.388-2.39,0.581-4.231,0.581c-2.596,0-4.57-0.71-5.934-2.123
		c-1.364-1.414-2.043-3.142-2.043-5.178c0-2.169,0.622-4.043,1.863-5.615c1.24-1.568,2.91-2.354,5.004-2.354
		c1.924,0,3.385,0.566,4.39,1.704C293.064,137.396,293.563,138.858,293.563,140.64L293.563,140.64z M291.066,140.669
		c0-2.802-1.175-4.201-3.517-4.201c-2.39,0-3.804,1.455-4.233,4.365L291.066,140.669L291.066,140.669z M320.691,141.88
		c0,2.554-0.736,4.55-2.202,5.979c-1.464,1.43-3.19,2.144-5.176,2.144c-1.854,0-3.447-0.633-4.779-1.899
		c-1.333-1.265-1.997-3.048-1.997-5.355c0-2.573,0.735-4.579,2.206-6.023c1.471-1.451,3.2-2.17,5.183-2.17
		c1.858,0,3.446,0.638,4.772,1.919C320.027,137.756,320.691,139.558,320.691,141.88L320.691,141.88z M318.102,142.406
		c0-1.558-0.393-2.94-1.175-4.15c-0.785-1.21-1.898-1.818-3.344-1.818c-1.434,0-2.541,0.572-3.313,1.721
		c-0.771,1.148-1.158,2.476-1.158,3.992c0,1.568,0.394,2.951,1.175,4.162c0.78,1.205,1.898,1.807,3.359,1.807
		c1.433,0,2.537-0.577,3.303-1.726C317.714,145.239,318.102,143.913,318.102,142.406L318.102,142.406z M333.689,128.197
		l-0.436,1.971c-0.597-0.148-1.194-0.219-1.792-0.219c-0.919,0-1.541,0.356-1.862,1.082c-0.328,0.725-0.484,2.216-0.484,4.478
		c0.984,0,2.367-0.046,4.139-0.148l-0.085,2.231c-2.018-0.062-3.371-0.093-4.054-0.093c0,4.54,0.056,8.512,0.178,11.923h-2.681
		c0.144-3.319,0.209-7.296,0.209-11.923c-0.607,0-1.669,0.031-3.187,0.093l0.108-2.2c1.378,0.081,2.404,0.117,3.078,0.117
		c0-2.641,0.373-4.565,1.108-5.765c0.74-1.2,1.915-1.802,3.532-1.802C332.166,127.942,332.914,128.028,333.689,128.197
		L333.689,128.197z M370.071,129.949c0,0.724-1.077,3.987-3.23,9.781c-2.154,5.79-3.228,9.021-3.228,9.691h-1.945
		c0-0.88-0.787-3.422-2.348-7.629c-1.705-4.559-2.677-7.493-2.907-8.812h-0.191c-0.201,1.398-1.058,4.391-2.575,8.976
		c-1.414,4.298-2.121,6.784-2.121,7.465h-1.947c0-1.018-1.05-4.428-3.161-10.223c-2.108-5.8-3.165-8.882-3.165-9.25h2.844
		c0,0.406,0.756,2.986,2.268,7.744c1.512,4.759,2.267,7.668,2.267,8.736h0.164c0-1.129,0.766-4.023,2.301-8.686
		c1.537-4.66,2.304-7.26,2.304-7.795h2.62c0,0.644,0.795,3.411,2.394,8.291c1.593,4.88,2.39,7.613,2.39,8.189h0.168
		c0-0.977,0.726-3.743,2.176-8.292c1.449-4.554,2.175-7.286,2.175-8.188H370.071L370.071,129.949z M384.117,149.422l-2.35,0.092
		c-0.116-0.491-0.178-0.955-0.178-1.395h-0.148c-1.23,1.119-2.9,1.675-5.013,1.675c-1.148,0-2.134-0.337-2.962-1.011
		c-0.826-0.668-1.241-1.628-1.241-2.875c0-1.536,0.648-2.772,1.945-3.706c1.298-0.93,3.701-1.42,7.225-1.47
		c0.03-0.24,0.046-0.518,0.046-0.823c0-1.23-0.326-2.047-0.98-2.456c-0.653-0.407-1.644-0.611-2.971-0.611
		c-1.569,0-3.104,0.192-4.62,0.581l0.255-2.063c1.496-0.428,3.212-0.644,5.156-0.644c1.777,0,3.149,0.368,4.114,1.099
		c0.967,0.734,1.451,1.986,1.451,3.747c0,0.469-0.021,1.322-0.067,2.553c-0.045,1.229-0.065,2.052-0.065,2.461
		C383.714,146.389,383.847,148.008,384.117,149.422L384.117,149.422z M381.468,146.521c-0.046-1.516-0.072-2.88-0.072-4.086
		c-1.874,0-3.303,0.139-4.278,0.421c-1.634,0.499-2.455,1.449-2.455,2.853c0,1.359,0.96,2.038,2.873,2.038
		C379.18,147.747,380.49,147.339,381.468,146.521L381.468,146.521z M398.552,145.368c0,2.91-1.86,4.37-5.583,4.37
		c-1.645,0-3.18-0.169-4.605-0.495l0.467-2.201c1.296,0.5,2.7,0.751,4.216,0.751c2.175,0,3.264-0.618,3.264-1.859
		c0-0.597-0.246-1.073-0.726-1.424c-0.484-0.357-1.286-0.752-2.404-1.19c-1.415-0.562-2.441-1.097-3.08-1.618
		c-0.938-0.765-1.407-1.694-1.407-2.782c0-1.134,0.427-2.108,1.286-2.92c0.855-0.818,2.163-1.221,3.92-1.221
		c1.716,0,3.089,0.144,4.131,0.434l-0.465,2.155c-1.077-0.43-2.323-0.643-3.742-0.643c-1.914,0-2.868,0.551-2.868,1.657
		c0,0.558,0.213,1.011,0.642,1.354c0.43,0.342,1.267,0.761,2.512,1.251c1.348,0.526,2.345,1.048,2.992,1.553
		C398.066,143.33,398.552,144.27,398.552,145.368L398.552,145.368z M416.308,149.422h-2.722c0.219-2.625,0.326-5.442,0.326-8.466
		c0-1.618-0.302-2.705-0.904-3.267c-0.603-0.568-1.439-0.848-2.506-0.848c-1.496,0-2.896,0.515-4.203,1.54
		c0,5.443,0.042,9.125,0.123,11.04h-2.635c0.092-2.636,0.133-6.353,0.133-11.161c0-4.207-0.142-7.501-0.435-9.884l2.845-0.149
		c-0.081,3.037-0.116,5.861-0.116,8.466h0.085c1.497-1.317,3.135-1.977,4.922-1.977c1.599,0,2.846,0.372,3.743,1.113
		c0.894,0.745,1.344,2.047,1.344,3.91c0,0.194-0.012,0.562-0.032,1.119c-0.02,0.551-0.029,1.036-0.029,1.455
		C416.246,143.754,416.266,146.125,416.308,149.422L416.308,149.422z M424.072,149.422h-2.706c0.138-1.997,0.209-4.274,0.209-6.837
		c0-2.88-0.174-5.3-0.526-7.255l2.992-0.404c-0.118,2.084-0.179,4.637-0.179,7.659C423.862,144.979,423.934,147.256,424.072,149.422
		L424.072,149.422z M424.699,130.725c0,0.505-0.163,0.95-0.495,1.321c-0.325,0.374-0.791,0.563-1.388,0.563
		c-0.512,0-0.905-0.164-1.19-0.484c-0.286-0.327-0.425-0.715-0.425-1.175c0-0.5,0.17-0.935,0.508-1.302
		c0.34-0.369,0.807-0.553,1.408-0.553c0.484,0,0.872,0.159,1.159,0.486C424.558,129.903,424.699,130.285,424.699,130.725
		L424.699,130.725z M441.843,149.422h-2.721c0.22-2.625,0.327-5.484,0.327-8.589c0-1.532-0.313-2.582-0.935-3.144
		c-0.623-0.568-1.51-0.848-2.67-0.848c-1.413,0-2.722,0.515-3.916,1.54c0,3.401,0.021,7.083,0.061,11.04h-2.726
		c0.174-3.392,0.255-5.848,0.255-7.357c0-2.334-0.219-4.601-0.658-6.791l2.635-0.377l0.279,1.828h0.123
		c1.476-1.339,3.058-2.008,4.744-2.008c1.654,0,2.935,0.368,3.844,1.099c0.904,0.734,1.357,2.036,1.357,3.915
		c0,0.189-0.01,0.563-0.029,1.118c-0.021,0.562-0.03,0.935-0.03,1.123C441.783,143.637,441.804,146.125,441.843,149.422
		L441.843,149.422z M460.965,133.328l-0.241,2.063c-1.858,0-2.881,0.301-3.069,0.898v0.147c0.639,0.775,0.96,1.665,0.96,2.665
		c0,1.552-0.509,2.839-1.536,3.85c-1.021,1.011-2.6,1.516-4.732,1.516c-0.944,0-1.7-0.096-2.257-0.296
		c-0.49,0.349-0.735,0.782-0.735,1.303c0,0.639,0.291,1.062,0.868,1.272c0.74,0.275,2.276,0.417,4.619,0.417
		c3.795,0,5.689,1.256,5.689,3.769c0,1.791-0.741,3.278-2.216,4.458c-1.478,1.174-3.386,1.766-5.729,1.766
		c-2.405,0-4.115-0.439-5.138-1.313c-1.026-0.873-1.535-1.919-1.535-3.145c0-1.118,0.255-2.016,0.755-2.696
		c0.505-0.679,1.133-1.098,1.879-1.256v-0.133c-0.785-0.378-1.181-1.107-1.181-2.185c0-0.977,0.497-1.832,1.498-2.574v-0.117
		c-0.53-0.26-1.038-0.698-1.512-1.316c-0.48-0.618-0.722-1.39-0.722-2.304c0-1.587,0.526-2.879,1.573-3.875s2.563-1.495,4.544-1.495
		c1.63,0,2.906,0.295,3.83,0.884h0.163c0.322-1.687,1.159-2.528,2.517-2.528C459.994,133.104,460.564,133.177,460.965,133.328
		L460.965,133.328z M458.284,151.948c0-0.933-0.343-1.598-1.022-1.981c-0.684-0.382-1.97-0.576-3.854-0.576
		c-1.277,0-2.44-0.061-3.497-0.18c-1.222,0.588-1.827,1.451-1.827,2.59c0,2.431,1.597,3.649,4.788,3.649
		c1.665,0,2.98-0.326,3.956-0.975C457.799,153.826,458.284,152.985,458.284,151.948L458.284,151.948z M456.205,139.715
		c0-1.097-0.348-1.939-1.042-2.521c-0.689-0.581-1.57-0.873-2.64-0.873c-1.005,0-1.849,0.28-2.528,0.843
		c-0.677,0.562-1.015,1.363-1.015,2.399c0,1.087,0.347,1.915,1.042,2.487c0.69,0.565,1.584,0.852,2.67,0.852
		c0.996,0,1.827-0.281,2.503-0.833C455.868,141.517,456.205,140.732,456.205,139.715L456.205,139.715z M473.375,147.358
		l-0.179,1.947c-0.786,0.283-1.532,0.433-2.227,0.433c-1.796,0-3.021-0.46-3.682-1.374c-0.657-0.907-0.99-2.542-0.99-4.896
		c0-1.526,0.01-3.517,0.031-5.969c-0.557,0-1.378,0.031-2.467,0.093l0.088-2.17c0.949,0.062,1.797,0.087,2.548,0.087
		c0-0.598,0.047-2.019,0.148-4.265l2.349-0.233c-0.17,2.093-0.256,3.594-0.256,4.498c0.975,0,2.414-0.046,4.309-0.148l-0.107,2.231
		c-1.792-0.062-3.236-0.093-4.318-0.093c-0.021,1.506-0.031,3.201-0.031,5.086c0,2.053,0.215,3.415,0.648,4.074
		c0.434,0.664,1.24,0.996,2.415,0.996C472.043,147.655,472.619,147.557,473.375,147.358L473.375,147.358z M490.969,141.88
		c0,2.554-0.735,4.55-2.201,5.979c-1.464,1.43-3.191,2.144-5.177,2.144c-1.854,0-3.446-0.633-4.779-1.899
		c-1.333-1.265-1.996-3.048-1.996-5.355c0-2.573,0.735-4.579,2.206-6.023c1.47-1.451,3.2-2.17,5.182-2.17
		c1.857,0,3.447,0.638,4.773,1.919C490.305,137.756,490.969,139.558,490.969,141.88L490.969,141.88z M488.381,142.406
		c0-1.558-0.395-2.94-1.177-4.15c-0.785-1.21-1.898-1.818-3.344-1.818c-1.435,0-2.543,0.572-3.313,1.721
		c-0.771,1.148-1.159,2.476-1.159,3.992c0,1.568,0.394,2.951,1.175,4.162c0.78,1.205,1.898,1.807,3.358,1.807
		c1.435,0,2.538-0.577,3.305-1.726C487.992,145.239,488.381,143.913,488.381,142.406L488.381,142.406z M508.229,149.422h-2.721
		c0.221-2.625,0.326-5.484,0.326-8.589c0-1.532-0.31-2.582-0.932-3.144c-0.625-0.568-1.513-0.848-2.672-0.848
		c-1.414,0-2.721,0.515-3.915,1.54c0,3.401,0.021,7.083,0.06,11.04h-2.726c0.174-3.392,0.256-5.848,0.256-7.357
		c0-2.334-0.22-4.601-0.658-6.791l2.633-0.377l0.282,1.828h0.122c1.476-1.339,3.058-2.008,4.743-2.008
		c1.653,0,2.936,0.368,3.845,1.099c0.903,0.734,1.356,2.036,1.356,3.915c0,0.189-0.01,0.563-0.029,1.118
		c-0.021,0.562-0.032,0.935-0.032,1.123C508.167,143.637,508.188,146.125,508.229,149.422L508.229,149.422z"/>
	<path fill-rule="evenodd" clip-rule="evenodd" fill="#436990" d="M512.085,70.358c0.03,0.139-0.003,1.186-0.133,1.581
		c-0.545,1.643-2.243,4.329-4.106,6.945c-3.32,4.663-6.474,9.157-7.575,11.131c-2.394,4.294-3.77,7.344-3.77,9.684
		c0,4.419,0.179,9.989,0.486,14.671h-8.022c0.277-4.439,0.366-9.335,0.438-14.324c0.037-2.571-1.209-6.346-3.66-10.824
		c-1.401-2.555-3.726-6.134-6.971-10.94c-1.743-2.583-3.431-5.092-3.96-6.64c-0.148-0.433-0.056-1.063-0.027-1.285h8.388
		c0,0.095-0.098,0.641,0.004,0.893c0.604,1.502,2.677,5.246,5.569,10.02c1.128,1.861,3.961,6.795,5.08,9.799
		c1.036-2.785,1.913-4.359,4.767-9.432c2.922-5.194,5.447-9.649,5.447-10.509v-0.769H512.085L512.085,70.358z M468.678,113.223
		c-3.516,1.153-7.284,1.981-11.771,1.981c-7.527,0-13.6-1.938-17.854-6.146c-4.114-4.066-6.294-9.105-6.294-15.793
		c0-5.989,2.142-11.927,6.696-16.56c4.291-4.363,10.108-6.949,18.334-6.949c2.659,0,6.018,0.51,8.65,1.245l-1.188,7.051
		c-3.634-0.982-7.299-1.584-9.464-1.584c-4.315,0-8.656,1.291-11.415,4.433c-2.758,3.144-4.092,6.763-4.092,11.423
		c0,4.682,1.518,8.267,4.681,11.785c2.789,3.102,7.131,5.041,12.899,5.041c1.056,0,1.911-0.09,4.021-0.407
		c-0.335-2.231-0.418-4.195-0.418-7.15c0-2.494-0.285-5.821-0.582-8.196h7.837c-0.176,2.825-0.367,6.712-0.367,9.867
		C468.35,104.614,468.503,108.409,468.678,113.223L468.678,113.223z M377.693,107.869l-0.321,6.501h-27.55
		c0.253-5.299,0.487-13.635,0.487-23.021c0-8.066-0.22-15.809-0.474-20.996h7.897c-0.265,4.33-0.474,12.072-0.474,20.996
		c0,7.342-0.063,12.529-0.305,16.959C363.395,108.309,370.615,108.109,377.693,107.869L377.693,107.869z M331.919,92.408
		c0-5.539-1.351-9.225-4.256-12.264c-2.907-3.038-6.229-4.443-9.427-4.443c-3.518,0-6.365,1.273-9.113,4.471
		c-2.746,3.198-4.119,7.152-4.119,12.494c0,5.561,1.519,9.655,4.359,12.57c2.576,2.643,6.062,4.168,9.843,4.168
		c3.41,0,6.576-1.973,8.709-4.644C330.562,101.444,331.919,97.683,331.919,92.408L331.919,92.408z M339.459,91.588
		c0,7.114-2.216,13.692-6.516,17.591c-3.913,3.547-8.464,6.48-14.778,6.48c-6.072,0-10.447-2.25-14.365-6.001
		c-4.425-4.232-6.317-9.705-6.317-16.188c0-7.012,1.752-12.513,6.626-17.549c4.014-4.15,8.995-6.344,14.954-6.344
		c5.11,0,9.795,1.789,14.117,5.893C337.134,79.225,339.459,85.105,339.459,91.588L339.459,91.588z M291.475,107.207l-0.556,6.591
		c-2.538,0.873-6.287,1.405-9.811,1.405c-7.521,0-13.566-2.131-17.308-6.285c-3.676-4.079-6.081-9.732-6.081-15.568
		c0-6.122,3.035-12.616,7.167-17.045c4.143-4.44,10.151-6.562,17.152-6.562c1.934,0,5.082,0.611,7.233,1.193l-1.22,6.754
		c-2.474-0.78-5.496-1.33-7.432-1.33c-5.197,0-8.774,1.368-11.456,4.587c-2.681,3.22-3.912,7.127-3.912,11.402
		c0,4.747,1.417,8.383,4.544,11.732c3.044,3.257,7.363,4.812,12.264,4.812C285.441,108.894,288.145,108.13,291.475,107.207
		L291.475,107.207z M251.352,107.741l-0.299,6.629h-28.095c0.23-6.648,0.516-18.688,0.5-23.104
		c-0.022-6.458-0.237-15.206-0.534-20.909h26.591l-0.348,6.583c-5.901-0.252-12.541-0.452-19.157-0.452
		c0.132,3.33,0.225,6.315,0.225,11.975c2.364-0.027,4.881-0.042,7.308-0.11c3.064-0.086,5.989-0.238,8.332-0.381v6.644
		c-4.773-0.138-10.231-0.326-15.639-0.326c0,5.517,0.146,9.177,0.272,14.021C237.641,108.309,244.912,108.061,251.352,107.741
		L251.352,107.741z M416.928,92.408c0-5.539-1.349-9.225-4.256-12.264c-2.906-3.038-6.229-4.443-9.427-4.443
		c-3.517,0-6.364,1.273-9.111,4.471c-2.749,3.198-4.121,7.152-4.121,12.494c0,5.561,1.52,9.655,4.361,12.57
		c2.575,2.643,6.06,4.168,9.841,4.168c3.41,0,6.578-1.973,8.71-4.644C415.57,101.444,416.928,97.683,416.928,92.408L416.928,92.408z
		 M424.468,91.588c0,7.114-2.214,13.692-6.515,17.591c-3.912,3.547-8.464,6.48-14.779,6.48c-6.07,0-10.446-2.25-14.365-6.001
		c-4.423-4.232-6.315-9.705-6.315-16.188c0-7.012,1.75-12.513,6.624-17.549c4.016-4.15,8.998-6.344,14.955-6.344
		c5.112,0,9.794,1.789,14.116,5.893C422.143,79.225,424.468,85.105,424.468,91.588L424.468,91.588z"/>
	<path fill-rule="evenodd" clip-rule="evenodd" fill="#80A8CD" d="M80.743,71.541h121.523l-0.291-40.315H73.45
		c0.373,2.776-0.414,6.049,1.16,8.37c0.787,1.16,3.191-1.285,4.309-0.374c0.912,0.746-0.331,2.361-0.414,3.563
		c-0.125,2.03,0.705,4.267-0.249,6.091c-0.456,0.953-3.315-0.622-3.108,0.414c0.498,2.569,3.729,3.937,4.475,6.422
		c0.29,0.994-2.03,1.533-1.823,2.568c0.622,3.315,4.889,6.009,4.019,9.282L80.743,71.541L80.743,71.541z"/>
	<path fill-rule="evenodd" clip-rule="evenodd" fill="#80A8CD" d="M29.49,71.541h42.552c0.166-1.492,0.787-2.983,0.497-4.475
		c-0.415-2.113-0.87-4.558-2.528-5.925c-0.787-0.622-1.285,2.071-2.279,1.947c-2.113-0.249-3.563-2.776-5.676-2.9
		c-2.237-0.166-4.185,2.776-6.339,2.196l-26.559-7.127c-2.486-0.746-0.663,1.16-0.746,1.616l-1.119,4.143l-0.166,4.972l1.119,3.521
		L29.49,71.541L29.49,71.541z"/>
	<path fill-rule="evenodd" clip-rule="evenodd" fill="#FFD76D" d="M124.994,51.528c0-5.966,5.013-10.98,10.98-10.98
		c6.048,0,11.021,5.014,11.021,10.98c0,6.049-4.972,11.022-11.021,11.022C130.007,62.55,124.994,57.578,124.994,51.528
		L124.994,51.528z"/>
	<path fill-rule="evenodd" clip-rule="evenodd" fill="#7AA456" d="M202.266,73.115l0.332,40.894H40.636l-0.208-4.142l-1.906-3.896
		l-1.491-2.941l-1.285-4.972l-1.243-7.126c31.075-9.364,40.811-4.475,40.811-4.475s12.844,6.256,22.042,2.362
		c19.142-8.328,33.022-4.972,33.022-4.972s23.907,9.53,33.478,1.533c9.695-7.748,15.33-7.458,22.871-9.198H31.604L31.188,74.4
		l-0.787-1.285H202.266L202.266,73.115z"/>
	<path fill-rule="evenodd" clip-rule="evenodd" fill="#436990" d="M202.628,115.555l0.059,6.852c0.061,1.26,0.241,2.702,0.722,3.903
		c1.322,3.186,3.004,4.568,3.786,7.933c0.3,1.382-2.164,3.004-0.961,4.508c1.802,2.223,2.042,3.965-0.301,3.965l-52.818,0.06
		c-7.029,1.982-14,3.966-20.971,5.949c-1.141,0.662-2.223,1.263-3.365,1.922c-2.463,1.324-4.566,2.706-6.789,2.706
		c-2.224,0-4.447-2.465-7.271-2.285c-2.824,0.122-4.506,3.966-7.691,4.087c-3.125,0.181-5.769-4.387-8.533-4.387h-3.365
		c-4.026,0-11.897,4.927-15.864,5.047c-4.026,0.181-10.095-2.282-11.236-6.609l-1.562-6.189l-2.704-6.249l-4.086-4.326
		c-0.42,0.06-0.841,0.121-1.201,0.181c-0.722,0-1.082,0-1.743-0.301c-0.721-0.301-1.442-0.722-1.982-1.322l-1.082-0.962
		l-9.313-0.659c-1.983-0.121-3.425-3.605-3.305-7.032l-0.36-6.789H202.628L202.628,115.555z M105.885,133.762H72.957
		c0,0,2.043,2.163,5.167,2.524c2.945,0.119,7.632-1.442,11.057-1.202c3.485,0.12,7.151,1.682,9.614,1.321
		C100.897,136.286,105.885,133.762,105.885,133.762L105.885,133.762z M194.636,118.618h-89.893c0,0,5.228,2.885,10.816,4.087
		c5.709,1.263,16.525-1.202,19.469-0.66c3.064,0,4.927,1.261,16.284,3.244c8.171,1.201,17.305-2.464,17.305-2.464
		s4.807-3.003,17.906-1.743C186.524,121.082,187.966,121.624,194.636,118.618L194.636,118.618z"/>
</g>
</svg>
